<mxfile host="65bd71144e">
    <diagram id="nsEZsZLC_8mhvWBDVExQ" name="第 1 页">
        <mxGraphModel dx="1080" dy="721" grid="1" gridSize="10" guides="1" tooltips="1" connect="1" arrows="1" fold="1" page="1" pageScale="1" pageWidth="827" pageHeight="1169" math="0" shadow="0">
            <root>
                <mxCell id="0"/>
                <mxCell id="1" parent="0"/>
                <mxCell id="2" value="" style="rounded=1;whiteSpace=wrap;html=1;strokeWidth=2;" parent="1" vertex="1">
                    <mxGeometry x="181" y="300" width="330" height="120" as="geometry"/>
                </mxCell>
                <mxCell id="63" value="" style="group;rotation=-90;" parent="1" vertex="1" connectable="0">
                    <mxGeometry x="381" y="310" width="60" height="80" as="geometry"/>
                </mxCell>
                <mxCell id="64" value="" style="shape=partialRectangle;whiteSpace=wrap;html=1;bottom=0;top=0;fillColor=default;strokeWidth=2;rotation=-90;" parent="63" vertex="1">
                    <mxGeometry y="20" width="40" height="60" as="geometry"/>
                </mxCell>
                <mxCell id="65" value="" style="shape=partialRectangle;whiteSpace=wrap;html=1;bottom=0;top=0;fillColor=default;strokeWidth=2;rotation=-90;" parent="63" vertex="1">
                    <mxGeometry x="10" y="10" width="40" height="60" as="geometry"/>
                </mxCell>
                <mxCell id="66" value="" style="shape=partialRectangle;whiteSpace=wrap;html=1;bottom=0;top=0;fillColor=default;strokeWidth=2;rotation=-90;" parent="63" vertex="1">
                    <mxGeometry x="20" width="40" height="60" as="geometry"/>
                </mxCell>
                <mxCell id="67" value="" style="sketch=0;pointerEvents=1;shadow=0;dashed=0;html=1;strokeColor=none;fillColor=#505050;labelPosition=center;verticalLabelPosition=bottom;verticalAlign=top;outlineConnect=0;align=center;shape=mxgraph.office.devices.nic;strokeWidth=2;" parent="1" vertex="1">
                    <mxGeometry x="81" y="310" width="57" height="38" as="geometry"/>
                </mxCell>
                <mxCell id="88" value="&lt;font face=&quot;Times New Roman&quot; style=&quot;font-size: 24px;&quot;&gt;ATS-INTC&lt;/font&gt;" style="text;html=1;align=center;verticalAlign=middle;resizable=0;points=[];autosize=1;strokeColor=none;fillColor=none;" parent="1" vertex="1">
                    <mxGeometry x="206" y="430" width="130" height="40" as="geometry"/>
                </mxCell>
                <mxCell id="90" value="" style="group" parent="1" vertex="1" connectable="0">
                    <mxGeometry x="201.5" y="330" width="123" height="63" as="geometry"/>
                </mxCell>
                <mxCell id="79" value="" style="rounded=1;whiteSpace=wrap;html=1;strokeWidth=2;fillColor=default;" parent="90" vertex="1">
                    <mxGeometry width="120" height="60" as="geometry"/>
                </mxCell>
                <mxCell id="80" value="&lt;font face=&quot;Times New Roman&quot; style=&quot;font-size: 24px;&quot;&gt;Ext Intr&lt;br&gt;Dispatcher&lt;br&gt;&lt;/font&gt;" style="text;html=1;align=center;verticalAlign=middle;resizable=0;points=[];autosize=1;strokeColor=none;fillColor=none;" parent="90" vertex="1">
                    <mxGeometry x="-7" y="-7" width="130" height="70" as="geometry"/>
                </mxCell>
                <mxCell id="112" value="&lt;font face=&quot;Times New Roman&quot; style=&quot;font-size: 24px;&quot;&gt;PScheduler&lt;br&gt;&lt;/font&gt;" style="text;html=1;align=center;verticalAlign=middle;resizable=0;points=[];autosize=1;strokeColor=none;fillColor=none;" parent="1" vertex="1">
                    <mxGeometry x="346" y="380" width="130" height="40" as="geometry"/>
                </mxCell>
                <mxCell id="113" value="" style="endArrow=classic;html=1;strokeWidth=2;entryX=0;entryY=0.5;entryDx=0;entryDy=0;" parent="1" source="67" target="79" edge="1">
                    <mxGeometry width="50" height="50" relative="1" as="geometry">
                        <mxPoint x="138" y="361" as="sourcePoint"/>
                        <mxPoint x="188" y="311" as="targetPoint"/>
                    </mxGeometry>
                </mxCell>
                <mxCell id="115" value="" style="endArrow=classic;html=1;strokeWidth=2;exitX=1;exitY=0.5;exitDx=0;exitDy=0;entryX=0.5;entryY=0;entryDx=0;entryDy=0;" parent="1" source="79" target="64" edge="1">
                    <mxGeometry width="50" height="50" relative="1" as="geometry">
                        <mxPoint x="321.5" y="359.71" as="sourcePoint"/>
                        <mxPoint x="371" y="360" as="targetPoint"/>
                    </mxGeometry>
                </mxCell>
                <mxCell id="116" value="" style="endArrow=classic;html=1;strokeWidth=2;entryX=1.01;entryY=0.651;entryDx=0;entryDy=0;entryPerimeter=0;exitX=0.271;exitY=-0.012;exitDx=0;exitDy=0;exitPerimeter=0;" parent="1" source="64" target="79" edge="1">
                    <mxGeometry width="50" height="50" relative="1" as="geometry">
                        <mxPoint x="331.62" y="369.46" as="sourcePoint"/>
                        <mxPoint x="381" y="370" as="targetPoint"/>
                    </mxGeometry>
                </mxCell>
                <mxCell id="117" value="" style="endArrow=classic;html=1;strokeWidth=2;exitX=0.5;exitY=1;exitDx=0;exitDy=0;edgeStyle=orthogonalEdgeStyle;curved=1;" parent="1" source="66" target="120" edge="1">
                    <mxGeometry width="50" height="50" relative="1" as="geometry">
                        <mxPoint x="521" y="242.15999999999988" as="sourcePoint"/>
                        <mxPoint x="591" y="242.5" as="targetPoint"/>
                        <Array as="points">
                            <mxPoint x="530" y="340"/>
                            <mxPoint x="530" y="300"/>
                        </Array>
                    </mxGeometry>
                </mxCell>
                <mxCell id="118" value="" style="endArrow=classic;html=1;strokeWidth=2;edgeStyle=orthogonalEdgeStyle;curved=1;" parent="1" target="123" edge="1">
                    <mxGeometry width="50" height="50" relative="1" as="geometry">
                        <mxPoint x="451" y="350" as="sourcePoint"/>
                        <mxPoint x="591" y="522.5" as="targetPoint"/>
                        <Array as="points">
                            <mxPoint x="531" y="350"/>
                            <mxPoint x="531" y="430"/>
                        </Array>
                    </mxGeometry>
                </mxCell>
                <mxCell id="121" value="" style="group" parent="1" vertex="1" connectable="0">
                    <mxGeometry x="591" y="230" width="130" height="130" as="geometry"/>
                </mxCell>
                <mxCell id="120" value="" style="sketch=0;pointerEvents=1;shadow=0;dashed=0;html=1;strokeColor=none;fillColor=#434445;aspect=fixed;labelPosition=center;verticalLabelPosition=bottom;verticalAlign=top;align=center;outlineConnect=0;shape=mxgraph.vvd.cpu;" parent="121" vertex="1">
                    <mxGeometry width="130" height="130" as="geometry"/>
                </mxCell>
                <mxCell id="97" value="&lt;font face=&quot;Times New Roman&quot; style=&quot;font-size: 24px;&quot;&gt;Kernel&lt;/font&gt;" style="text;html=1;align=center;verticalAlign=middle;resizable=0;points=[];autosize=1;strokeColor=none;fillColor=none;" parent="121" vertex="1">
                    <mxGeometry x="20" y="45" width="90" height="40" as="geometry"/>
                </mxCell>
                <mxCell id="122" value="" style="group" parent="1" vertex="1" connectable="0">
                    <mxGeometry x="590" y="400" width="130" height="130" as="geometry"/>
                </mxCell>
                <mxCell id="123" value="" style="sketch=0;pointerEvents=1;shadow=0;dashed=0;html=1;strokeColor=none;fillColor=#434445;aspect=fixed;labelPosition=center;verticalLabelPosition=bottom;verticalAlign=top;align=center;outlineConnect=0;shape=mxgraph.vvd.cpu;" parent="122" vertex="1">
                    <mxGeometry width="130" height="130" as="geometry"/>
                </mxCell>
                <mxCell id="124" value="&lt;font face=&quot;Times New Roman&quot; style=&quot;font-size: 24px;&quot;&gt;Kernel&lt;/font&gt;" style="text;html=1;align=center;verticalAlign=middle;resizable=0;points=[];autosize=1;strokeColor=none;fillColor=none;" parent="122" vertex="1">
                    <mxGeometry x="20" y="45" width="90" height="40" as="geometry"/>
                </mxCell>
                <mxCell id="129" value="" style="endArrow=none;dashed=1;html=1;dashPattern=1 3;strokeWidth=4;curved=1;" parent="1" edge="1">
                    <mxGeometry width="50" height="50" relative="1" as="geometry">
                        <mxPoint x="642" y="375" as="sourcePoint"/>
                        <mxPoint x="682" y="375" as="targetPoint"/>
                    </mxGeometry>
                </mxCell>
                <mxCell id="130" value="" style="sketch=0;pointerEvents=1;shadow=0;dashed=0;html=1;strokeColor=none;fillColor=#434445;aspect=fixed;labelPosition=center;verticalLabelPosition=bottom;verticalAlign=top;align=center;outlineConnect=0;shape=mxgraph.vvd.ssd;strokeWidth=2;" parent="1" vertex="1">
                    <mxGeometry x="88" y="370" width="50" height="35.5" as="geometry"/>
                </mxCell>
                <mxCell id="131" value="" style="endArrow=classic;html=1;strokeWidth=2;" parent="1" source="130" edge="1">
                    <mxGeometry width="50" height="50" relative="1" as="geometry">
                        <mxPoint x="148" y="348.60326086956525" as="sourcePoint"/>
                        <mxPoint x="201" y="370" as="targetPoint"/>
                    </mxGeometry>
                </mxCell>
            </root>
        </mxGraphModel>
    </diagram>
</mxfile>